<svg width="540" height="540" viewBox="0 0 540 540" fill="none" xmlns="http://www.w3.org/2000/svg">
<path d="M521.772 14.1521C511.793 10.3709 500.465 12.8017 492.913 20.0938C491.025 21.9844 442.746 67.8982 362.371 27.386C307.08 -0.432321 211.331 -16.9073 122.865 27.386C7.96703 85.1834 -32.7598 229.137 28.1956 356.885C44.9178 309.891 68.9224 270.189 100.479 238.589C176.269 162.967 267.702 162.967 270.129 162.157V171.339C226.415 183.393 186.556 206.559 154.422 238.589C88.0721 305.029 54.3578 406.31 54.3578 540H108.301C108.301 508.941 110.189 481.122 113.965 455.735C131.766 466.808 151.455 475.181 172.493 480.042C190.294 484.363 208.095 485.984 225.626 485.984C291.167 485.984 350.773 460.056 379.903 438.179C428.991 401.178 469.448 366.068 509.365 279.102C547.125 196.187 539.573 44.1311 539.034 37.6491C538.738 32.4794 536.949 27.507 533.885 23.3358C530.82 19.1647 526.613 15.9742 521.772 14.1521Z" fill="#F7F7F6"/>
</svg>
